Coordinates
version=1
nRows=30
nColumns=23
inDegrees=yes

Units are S.I. units (second, meters, Newtons, ...)
If the header above contains a line with 'inDegrees', this indicates whether rotational values are in degrees (yes) or radians (no).

endheader
time	pelvis_tilt	pelvis_list	pelvis_rotation	pelvis_tx	pelvis_ty	pelvis_tz	hip_flexion_r	hip_adduction_r	hip_rotation_r	knee_angle_r	knee_angle_r_beta	ankle_angle_r	subtalar_angle_r	mtp_angle_r	hip_flexion_l	hip_adduction_l	hip_rotation_l	knee_angle_l	knee_angle_l_beta	ankle_angle_l	subtalar_angle_l	mtp_angle_l
     22.50000000	     -2.44172787	     -7.56043606	      2.92384418	      2.20762444	      0.96073698	      1.04707605	     17.45904208	      9.79730273	     -7.54773657	     16.97585870	      0.29628463	      4.17072768	     -3.53416620	      0.00000000	     -9.30606451	    -15.58761345	    -19.53861165	     49.38029557	      0.86184874	    -11.46654804	    -11.58558939	      0.00000000
     22.50666667	     -3.21247188	     -7.35315501	      2.04546818	      2.20606068	      0.95532949	      1.04860886	     19.55717940	      9.34406106	     -8.11324088	     21.54810509	      0.37608538	      6.14112089	     -2.44265277	      0.00000000	     -7.27152145	    -15.51800986	    -19.32434525	     52.14648631	      0.91012788	    -10.57264929	    -12.35072659	      0.00000000
     22.51333333	     -2.96687409	     -7.56352759	      1.58267293	      2.20500382	      0.95137793	      1.04942211	     19.94681416	      9.47299832	     -8.20143278	     24.83368843	      0.43342963	      7.77552269	     -2.23795799	      0.00000000	     -6.28219644	    -15.92350856	    -18.87982903	     54.62950571	      0.95346474	     -9.72423002	    -12.91584997	      0.00000000
     22.52000000	     -2.70788156	     -7.74252313	      1.19164191	      2.20386768	      0.94768719	      1.05001507	     20.10750803	      9.57639017	     -8.20688089	     27.73186271	      0.48401231	      9.58187479	     -1.91965739	      0.00000000	     -5.18594815	    -16.19745588	    -18.16293660	     57.01618581	      0.99512017	     -8.93159680	    -13.49385692	      0.00000000
     22.52666667	     -1.84099211	     -8.25174578	      0.98823545	      2.20297292	      0.94521795	      1.05030112	     19.14832293	     10.16316009	     -7.90375449	     29.67006071	      0.51784025	     11.11248339	     -2.21519273	      0.00000000	     -4.71338391	    -16.78981367	    -17.33678983	     59.16718834	      1.03266225	     -8.14692155	    -13.89138420	      0.00000000
     22.53333333	     -1.94673750	     -8.25608061	      0.58998506	      2.20161458	      0.94170264	      1.05074008	     19.34334805	      9.99557777	     -8.13656730	     32.00654622	      0.55861961	     13.30002392	     -0.91293498	      0.00000000	     -2.99578217	    -16.72657050	    -16.32286973	     61.43636191	      1.07226680	     -7.05679320	    -13.83717246	      0.00000000
     22.54000000	     -1.23211744	     -8.63803309	      0.38656516	      2.20061335	      0.93996666	      1.05091520	     18.08865077	     10.47855402	     -7.74000412	     33.14725233	      0.57852869	     14.83670434	     -0.97438644	      0.00000000	     -2.21389459	    -17.01505479	    -15.27982338	     63.30667347	      1.10490989	     -6.21161713	    -14.01205613	      0.00000000
     22.54666667	     -1.00563921	     -8.98245324	      0.31468419	      2.19966320	      0.93798945	      1.05094614	     17.21829236	     10.72710165	     -7.95739541	     34.08210014	      0.59484486	     16.52084916	     -0.01759855	      0.00000000	     -0.71576103	    -17.25351698	    -14.00339084	     65.20670079	      1.13807162	     -4.90950453	    -13.20909967	      0.00000000
     22.55333333	     -0.81623101	     -9.07463148	      0.13753041	      2.19867946	      0.93650142	      1.05107646	     16.23336077	     10.70510310	     -8.12600156	     34.81921758	      0.60770999	     18.19883073	      1.28047921	      0.00000000	      0.77559332	    -17.09659235	    -12.76999509	     66.80877927	      1.16603317	     -3.76242000	    -12.84259586	      0.00000000
     22.56000000	     -0.51010439	     -9.16944934	     -0.17133052	      2.19775425	      0.93589682	      1.05147681	     14.80219421	     10.93060540	     -7.57501749	     34.90976146	      0.60929028	     19.41612578	      1.56749811	      0.00000000	      2.03740262	    -16.86719089	    -11.68384777	     68.05653905	      1.18781068	     -2.86004634	    -12.84462327	      0.00000000
     22.56666667	     -0.43794213	     -9.35873863	     -0.25494803	      2.19709619	      0.93535413	      1.05172309	     13.48378126	     11.12011236	     -7.52819276	     34.74392458	      0.60639588	     20.64040887	      2.18632693	      0.00000000	      3.66912068	    -16.77572070	    -10.42602124	     69.23631269	      1.20840162	     -1.57366819	    -12.34776431	      0.00000000
     22.57333333	     -0.53452003	     -9.32268646	     -0.33855873	      2.19657222	      0.93512274	      1.05194983	     12.22583221	     10.94889308	     -7.83329205	     34.41140314	      0.60059229	     21.72766296	      3.79498253	      0.00000000	      5.45620335	    -16.46848087	     -9.35444345	     70.17939989	      1.22486160	     -0.32777104	    -11.53364703	      0.00000000
     22.58000000	     -0.66453402	     -9.21691407	     -0.65345285	      2.19603507	      0.93547041	      1.05255159	     10.82462176	     10.95615432	     -7.31053889	     33.69750764	      0.58813246	     22.45786712	      4.28371270	      0.00000000	      7.11943912	    -16.03578876	     -8.52016791	     70.76665791	      1.23511118	      0.65761610	    -11.46038037	      0.00000000
     22.58666667	     -0.92090212	     -8.96943357	     -1.12414153	      2.19561696	      0.93621272	      1.05325946	      9.44419833	     10.81610138	     -6.65565008	     32.78299015	      0.57217112	     22.95303737	      4.85256037	      0.00000000	      8.77863502	    -15.45742478	     -7.95831690	     71.03192781	      1.23974101	      1.46058040	    -11.40650427	      0.00000000
     22.59333333	     -1.29808824	     -8.63127362	     -1.64282159	      2.19530036	      0.93726561	      1.05410465	      8.11535327	     10.55329458	     -6.03882863	     31.71075349	      0.55345706	     23.33681443	      5.40020541	      0.00000000	     10.48998640	    -14.88185802	     -7.64648860	     71.01998912	      1.23953264	      2.22958244	    -11.43024086	      0.00000000
     22.60000000	     -1.71467463	     -8.46053083	     -1.97922339	      2.19502603	      0.93850837	      1.05465071	      6.72541849	     10.47500313	     -5.47275025	     30.34839644	      0.52967944	     23.36019727	      6.04651698	      0.00000000	     12.33099040	    -14.43485883	     -7.11963045	     70.94013889	      1.23813900	      3.32378741	    -11.51256832	      0.00000000
     22.60666667	     -2.22071588	     -8.06935012	     -2.48405609	      2.19484524	      0.94006170	      1.05530988	      5.44255137	     10.14326531	     -4.76687104	     29.00392664	      0.50621402	     23.26665144	      6.58476513	      0.00000000	     14.07846080	    -13.84959852	     -7.00645345	     70.47850449	      1.23008196	      4.08982981	    -11.63238000	      0.00000000
     22.61333333	     -2.27785574	     -8.03906354	     -2.65146180	      2.19516163	      0.94256910	      1.05555892	      3.31225589	     10.27628788	     -3.85291174	     26.84459668	      0.46852660	     22.34745032	      6.38081821	      0.00000000	     15.31940885	    -13.58565159	     -6.62775714	     69.74683048	      1.21731183	      4.82574059	    -12.02042354	      0.00000000
     22.62000000	     -2.49431281	     -7.66144536	     -3.20098434	      2.19519948	      0.94522667	      1.05624651	      1.48022156	     10.07371341	     -2.34866386	     24.91557147	      0.43485876	     21.29351518	      5.75284266	      0.00000000	     16.52551809	    -13.07408887	     -6.80998708	     68.69469969	      1.19894869	      5.51938895	    -12.37654323	      0.00000000
     22.62666667	     -3.22659016	     -7.03659891	     -3.81256229	      2.19504329	      0.94730631	      1.05684202	      0.53762527	      9.40189842	     -1.64066282	     23.59394193	      0.41179197	     20.50778348	      6.31277937	      0.00000000	     18.28681511	    -12.33038124	     -7.08244652	     67.51280168	      1.17832068	      6.29659026	    -12.54872420	      0.00000000
     22.63333333	     -3.95028380	     -6.39579849	     -4.31403531	      2.19494749	      0.94964875	      1.05725496	     -0.37870518	      8.70664935	     -0.98965403	     22.24302412	      0.38821401	     19.45840275	      6.80903256	      0.00000000	     19.97662129	    -11.54722928	     -7.31479276	     66.05073639	      1.15280282	      7.01590469	    -12.72106404	      0.00000000
     22.64000000	     -3.72284632	     -6.08798226	     -4.42815585	      2.19553913	      0.95354520	      1.05730746	     -2.92776202	      8.58612915	      0.97167139	     19.57280152	      0.34160983	     16.74187542	      4.37261503	      0.00000000	     20.48864850	    -10.99620350	     -7.33439115	     64.17385948	      1.12004514	      7.45346683	    -13.12445721	      0.00000000
     22.64666667	     -4.33529334	     -5.36538505	     -4.64607015	      2.19569043	      0.95627742	      1.05727340	     -3.84715520	      7.73826407	      1.23501476	     18.25009305	      0.31852421	     14.94633707	      4.50045607	      0.00000000	     21.92687931	    -10.02347437	     -7.43098207	     62.20571332	      1.08569451	      7.99808868	    -13.19121820	      0.00000000
     22.65333333	     -4.64440567	     -4.71370884	     -4.79368065	      2.19596598	      0.95956494	      1.05717320	     -5.20040097	      7.03900894	      2.05409629	     16.62616644	      0.29018135	     12.61400781	      3.63934138	      0.00000000	     22.89730513	     -9.14507425	     -7.62701052	     59.92621540	      1.04590977	      8.45442041	    -13.10523000	      0.00000000
     22.66000000	     -5.36565324	     -3.93277663	     -4.93275210	      2.19605973	      0.96232188	      1.05701536	     -5.67568376	      6.09254729	      1.85064845	     15.76602963	      0.27516913	     10.49404274	      3.90325869	      0.00000000	     24.27348256	     -8.16518796	     -7.87082751	     57.49272413	      1.00343733	      8.94107026	    -12.65310415	      0.00000000
     22.66666667	     -5.60548449	     -3.25323513	     -4.76548756	      2.19654927	      0.96570820	      1.05644385	     -6.85716416	      5.32656038	      1.98459448	     14.48054737	      0.25273323	      7.89639701	      3.18776519	      0.00000000	     24.99271558	     -7.11994895	     -7.89475563	     54.72593668	      0.95514778	      9.20705030	    -12.29787919	      0.00000000
     22.67333333	     -6.39384373	     -2.55565047	     -4.82243990	      2.19671489	      0.96841348	      1.05617739	     -7.01006476	      4.50263654	      1.67254083	     14.01077446	      0.24453415	      5.66977892	      3.50695916	      0.00000000	     26.21731029	     -6.24384289	     -8.19364003	     51.85863785	      0.90510398	      9.60954422	    -11.48230038	      0.00000000
     22.68000000	     -6.57534150	     -1.85956440	     -4.42752004	      2.19734820	      0.97172828	      1.05525728	     -7.91147895	      3.67019462	      0.94952814	     13.31084616	      0.23231809	      2.98884681	      2.97460002	      0.00000000	     26.65272185	     -5.09985467	     -8.18241083	     48.65053030	      0.84911194	      9.76386070	    -10.57447065	      0.00000000
     22.68666667	     -7.18490856	     -1.29242830	     -4.28678311	      2.19770884	      0.97448741	      1.05464891	     -8.04494001	      2.97411672	      0.28268349	     13.18569732	      0.23013383	      0.53403565	      2.91080765	      0.00000000	     27.43277289	     -4.27496803	     -8.44348375	     45.35362538	      0.79157009	      9.93006322	     -9.41420352	      0.00000000
     22.69333333	     -7.67842528	     -0.79405823	     -4.00967720	      2.19826680	      0.97721544	      1.05382473	     -8.23493393	      2.35541556	     -0.53106568	     13.19454012	      0.23028817	     -1.90175439	      2.74143605	      0.00000000	     27.96466554	     -3.42539446	     -8.58313522	     41.88259258	      0.73098914	     10.08413370	     -8.11228911	      0.00000000
